<svg width="48" height="48" viewBox="0 0 48 48" fill="none" xmlns="http://www.w3.org/2000/svg">
<path fill-rule="evenodd" clip-rule="evenodd" d="M3.10686 14.4238L2.71133 16.2792H5.56302C7.09916 16.2792 8.18144 17.5951 9.1434 19.5002H0.98247V28.474H13.1027C14.6963 31.3196 16.8309 33.5375 20.2362 33.5375H45.4358V31.708H44.1024C42.774 31.708 41.7227 30.3864 40.7122 28.474H46.5522V19.5002H36.3833C34.6784 16.6478 32.5174 14.4238 29.3846 14.4238H3.10686ZM33.1245 19.5002H36.3833C37.4073 21.2136 38.2669 23.1537 39.0737 24.9748C39.6328 26.2367 40.1666 27.4415 40.7122 28.474H37.0838C36.1591 26.8229 35.4166 24.9605 34.7137 23.1973C34.1819 21.8632 33.6727 20.586 33.1245 19.5002ZM28.3388 19.5002C27.6008 18.2657 26.7775 17.1489 25.8269 16.2792H29.5441C31.0802 16.2792 32.1625 17.5951 33.1245 19.5002H28.3388ZM25.1052 19.5002H28.3388C29.3623 21.2123 30.2216 23.1508 31.0284 24.9706C31.5884 26.2341 32.1231 27.4403 32.6699 28.474H29.0646C28.1399 26.8229 27.3974 24.9605 26.6945 23.1973C26.1627 21.8632 25.6535 20.586 25.1052 19.5002ZM20.2778 19.5002C19.5398 18.2657 18.7164 17.1489 17.7655 16.2792H21.5249C23.061 16.2792 24.1433 17.5951 25.1052 19.5002H20.2778ZM17.0452 19.5002H20.2778C21.3016 21.213 22.1609 23.1524 22.9675 24.9729C23.5269 26.2355 24.061 27.441 24.6071 28.474H21.0051C20.0818 26.8247 19.3401 24.9645 18.6376 23.203C18.1048 21.8669 17.5947 20.5876 17.0452 19.5002ZM12.375 19.5002H9.1434C9.69166 20.586 10.2008 21.8632 10.7327 23.1973C11.4356 24.9605 12.1781 26.8229 13.1027 28.474H16.7055C17.7162 30.3864 18.7675 31.708 20.0958 31.708H23.459C22.4978 30.8375 21.7001 29.7155 21.0051 28.474H16.7055C16.1601 27.4421 15.6265 26.2381 15.0676 24.977C14.2603 23.1553 13.4001 21.2143 12.375 19.5002ZM12.375 19.5002H17.0452C16.0825 17.5951 14.9989 16.2792 13.461 16.2792H9.86176C10.8129 17.1489 11.6367 18.2657 12.375 19.5002ZM24.6071 28.474H29.0646C29.7598 29.7155 30.558 30.8375 31.5198 31.708H28.0002C26.6701 31.708 25.618 30.3864 24.6071 28.474ZM32.6699 28.474H37.0838C37.779 29.7155 38.5772 30.8375 39.539 31.708H36.0641C34.7339 31.708 33.6814 30.3864 32.6699 28.474Z" fill="#21242E"/>
<path fill-rule="evenodd" clip-rule="evenodd" d="M23.7705 1.81023C28.1122 1.81023 32.3564 3.10988 35.9668 5.54494C39.5772 7.97999 42.3917 11.4411 44.0547 15.491C45.7176 19.5408 46.1543 23.9975 45.3096 28.2979C44.4649 32.5983 42.3767 36.5493 39.3089 39.6517C36.2411 42.754 32.3314 44.8684 28.074 45.7276C23.8165 46.5868 19.4024 46.1523 15.3894 44.4789C11.3764 42.8056 7.9447 39.9685 5.52802 36.3263C3.11133 32.6841 1.81812 28.4003 1.81181 24.0161C1.82193 18.1384 4.13869 12.5044 8.25455 8.34823C12.3704 4.19208 17.9498 1.85265 23.7705 1.84243M23.7705 0.0322026C28.4673 0.0360243 33.0575 1.44591 36.9609 4.08361C40.8642 6.72132 43.9055 10.4684 45.7003 14.8512C47.4951 19.2341 47.9627 24.0558 47.0441 28.707C46.1254 33.3581 43.8618 37.6298 40.5394 40.9821C37.2169 44.3344 32.9848 46.6167 28.378 47.5406C23.7712 48.4644 18.9966 47.9883 14.6577 46.1725C10.3188 44.3566 6.6105 41.2825 4.0015 37.3388C1.39251 33.3951 1.52484e-06 28.7588 0 24.0161C0.00337679 17.6499 2.50844 11.5453 6.96518 7.04248C11.4219 2.53969 17.466 0.0068261 23.7705 0V0.0322026Z" fill="#21242E"/>
</svg>
